<svg width="80" height="81" viewBox="0 0 80 81" fill="none" xmlns="http://www.w3.org/2000/svg">
<path d="M76.657 65.1378C82.5581 37.2996 77.7539 18.9386 74.6812 13.3097L74.6699 13.2891L74.6609 13.2676C73.4091 10.2836 70.5245 6.15687 65.9615 3.52375C61.6727 1.04889 55.8708 -0.12519 48.4743 2.25639L48.4788 2.26967C21.519 11.3777 8.1688 24.8676 4.89128 30.3798L4.87932 30.3999L4.86535 30.4187C2.93572 33.0163 0.854889 37.6012 0.914456 42.8691C0.970545 47.8295 2.92388 53.4314 8.767 58.5897L8.76956 58.5867C30.3376 76.666 48.7051 80.9741 55.0985 80.8935L55.1218 80.8932L55.145 80.8952C58.3545 81.1828 63.3436 80.5704 67.8245 77.794C71.6319 75.435 75.0958 71.5 76.7877 65.1655L76.657 65.1378Z" fill="#F7F3FA"/>
</svg>
